<?xml version="1.0" standalone="no"?>
<!DOCTYPE svg PUBLIC "-//W3C//DTD SVG 20010904//EN"
 "http://www.w3.org/TR/2001/REC-SVG-20010904/DTD/svg10.dtd">
<svg version="1.0" xmlns="http://www.w3.org/2000/svg"
 width="1031.000000pt" height="1031.000000pt" viewBox="0 0 1031.000000 1031.000000"
 preserveAspectRatio="xMidYMid meet">
<metadata>
Created by potrace 1.11, written by Peter Selinger 2001-2013
</metadata>
<g transform="translate(0.000000,1031.000000) scale(0.100000,-0.100000)"
fill="#000000" stroke="none">
<path d="M3250 9296 l-1895 -1003 0 -3058 0 -3058 1639 -851 1638 -851 24 -84
c14 -46 36 -103 50 -126 178 -305 601 -348 836 -86 56 62 94 136 117 227 l17
67 1642 836 1641 836 -2 3074 -2 3075 -1890 999 c-1039 550 -1897 1001 -1905
1003 -8 2 -868 -448 -1910 -1000z"/>
</g>
</svg>
