<svg xmlns="http://www.w3.org/2000/svg" viewBox="0 0 277.07 63.68"><defs><style>.cls-1{fill:#b3b3b3;}.cls-2{fill:#29c952;}.cls-3{fill:none;stroke:#b3b3b3;stroke-miterlimit:10;stroke-width:0.75px;}</style></defs><title>marca</title><g id="Capa_2" data-name="Capa 2"><g id="Capa_1-2" data-name="Capa 1"><path class="cls-1" d="M69.74,55.11h2.72a3.92,3.92,0,0,1,4.23,4.21,3.92,3.92,0,0,1-4.23,4.22H69.74Zm2.64,7.69a3.47,3.47,0,0,0,0-6.94H70.57V62.8Z"/><path class="cls-1" d="M79.33,55.11h.83v8.43h-.83Z"/><path class="cls-1" d="M83.18,62a3.29,3.29,0,0,0,2.21.92,1.52,1.52,0,0,0,1.68-1.46c0-2.12-4.21-1.58-4.21-4.2A2.43,2.43,0,0,1,85.48,55a3.27,3.27,0,0,1,2.25.82l-.41.7a2.88,2.88,0,0,0-1.85-.72,1.61,1.61,0,0,0-1.78,1.45c0,2,4.21,1.43,4.21,4.2a2.33,2.33,0,0,1-2.55,2.28,3.72,3.72,0,0,1-2.67-1.08Z"/><path class="cls-1" d="M90.48,55.11h4.44v.74H91.3V59H94.4v.74H91.3v3.78h-.83Z"/><path class="cls-1" d="M97.35,55.11h2.49a3.73,3.73,0,0,1,1.58.23,2.45,2.45,0,0,1-.32,4.45v0a3.22,3.22,0,0,1,.22.33l1.83,3.39h-.95L100.3,60H98.18v3.55h-.83Zm2.83,4.14a1.75,1.75,0,0,0,.9-3.19,2.43,2.43,0,0,0-1.2-.2h-1.7v3.39Z"/><path class="cls-1" d="M105.49,55.11h.84v5.48a2.39,2.39,0,0,0,4.79,0V55.11h.83V60.6a3.23,3.23,0,0,1-6.45,0Z"/><path class="cls-1" d="M116.89,55.85h-3v-.74h6.88v.74h-3v7.69h-.83Z"/><path class="cls-1" d="M126.92,60.85h-3.39l-1,2.69h-.87l3.09-8.43h.89l3.09,8.43h-.88ZM125.21,56s-.18.7-.32,1.09l-1.13,3.06h2.9l-1.1-3.06c-.14-.4-.32-1.09-.32-1.09Z"/><path class="cls-1" d="M139,60.85h-3.39l-1,2.69h-.87l3.09-8.43h.89l3.09,8.43h-.88ZM137.25,56s-.18.7-.32,1.09l-1.13,3.06h2.9l-1.1-3.06c-.14-.4-.32-1.09-.32-1.09Z"/><path class="cls-1" d="M142.89,55.11h2.91a2.56,2.56,0,1,1,0,5.12h-2.09v3.31h-.83Zm2.81,4.38a1.71,1.71,0,0,0,1.86-1.83,1.69,1.69,0,0,0-1.85-1.8h-2v3.63Z"/><path class="cls-1" d="M154.93,60.85h-3.39l-1,2.69h-.87l3.09-8.43h.89l3.09,8.43h-.88ZM153.23,56s-.18.7-.32,1.09l-1.13,3.06h2.9l-1.1-3.06c-.14-.4-.32-1.09-.32-1.09Z"/><path class="cls-1" d="M158.87,55.11h2.49a3.73,3.73,0,0,1,1.58.23,2.45,2.45,0,0,1-.32,4.45v0a3.22,3.22,0,0,1,.22.33l1.83,3.39h-.95L161.82,60H159.7v3.55h-.83Zm2.83,4.14a1.75,1.75,0,0,0,.9-3.19,2.43,2.43,0,0,0-1.2-.2h-1.7v3.39Z"/><path class="cls-1" d="M170.79,55a4.28,4.28,0,0,1,3,1.09l-.44.61a4,4,0,0,0-2.57-.94,3.37,3.37,0,0,0-3.39,3.53,3.47,3.47,0,0,0,3.42,3.66,3.94,3.94,0,0,0,2.73-1.13l.48.59a4.5,4.5,0,0,1-3.23,1.31,4.25,4.25,0,0,1-4.27-4.41A4.18,4.18,0,0,1,170.79,55Z"/><path class="cls-1" d="M180.72,60.85h-3.39l-1,2.69h-.87l3.09-8.43h.89l3.09,8.43h-.88ZM179,56s-.18.7-.32,1.09l-1.13,3.06h2.9l-1.1-3.06c-.14-.4-.32-1.09-.32-1.09Z"/><path class="cls-1" d="M184.66,55.11h.8l4.3,6.07c.29.42.7,1.14.7,1.14h0s-.07-.7-.07-1.14V55.11h.83v8.43h-.8l-4.31-6.07c-.29-.42-.7-1.14-.7-1.14h0s.07.7.07,1.14v6.07h-.83Z"/><path class="cls-1" d="M194.41,55.11h2.72a3.92,3.92,0,0,1,4.23,4.21,3.92,3.92,0,0,1-4.23,4.22h-2.72ZM197,62.8a3.47,3.47,0,0,0,0-6.94h-1.81V62.8Z"/><path class="cls-1" d="M207.71,55A4.26,4.26,0,0,1,212,59.27a4.3,4.3,0,1,1-8.59,0A4.26,4.26,0,0,1,207.71,55Zm0,8a3.51,3.51,0,0,0,3.43-3.65,3.43,3.43,0,1,0-6.86,0A3.5,3.5,0,0,0,207.71,62.92Z"/><path class="cls-2" d="M20.25,0C30.13,0,35.1,5.13,35.1,5.13L30.56,12.2a15.37,15.37,0,0,0-9.4-3.56c-8.1,0-11.39,5.18-11.39,10.91,0,7.34,5.08,11.72,11.07,11.72a13.22,13.22,0,0,0,7.83-2.81v-3H23.22v-8H37V39.26H29.16V38.18c0-.81.05-1.62.05-1.62h-.11A16,16,0,0,1,19,39.91c-9.88,0-19-7.4-19-20C0,8.64,8.48,0,20.25,0Z"/><path class="cls-2" d="M43,11.45h9v4.7a14.78,14.78,0,0,1-.11,1.73h.11C53.13,14.09,56.64,11,60.8,11a6.29,6.29,0,0,1,1.08.11v9.18A10,10,0,0,0,60,20.09c-2.21,0-5.83.7-7.18,4.86a12.61,12.61,0,0,0-.49,3.78V39.26H43Z"/><path class="cls-2" d="M78.57,10.8c8.21,0,12.85,5.72,12.85,13.45,0,.92-.22,2.92-.22,2.92H73.66c.7,3.4,3.51,5,6.48,5,4,0,7.67-2.81,7.67-2.81l3.46,6.53a18.77,18.77,0,0,1-11.88,4.05c-9.94,0-15.28-7.18-15.28-14.58C64.1,17.17,69.6,10.8,78.57,10.8Zm3.46,11a3.79,3.79,0,0,0-3.67-4c-2.7,0-4,1.94-4.48,4Z"/><path class="cls-2" d="M108.86,10.8c8.21,0,12.85,5.72,12.85,13.45,0,.92-.22,2.92-.22,2.92H103.95c.7,3.4,3.51,5,6.48,5,4,0,7.67-2.81,7.67-2.81l3.46,6.53a18.77,18.77,0,0,1-11.88,4.05c-9.94,0-15.28-7.18-15.28-14.58C94.39,17.17,99.9,10.8,108.86,10.8Zm3.46,11a3.79,3.79,0,0,0-3.67-4c-2.7,0-4,1.94-4.48,4Z"/><path class="cls-2" d="M126.68,11.45h9v2.43a14.79,14.79,0,0,1-.11,1.73h.11a9.81,9.81,0,0,1,8.86-4.81c5.62,0,10,2.59,10,10.42v18h-9.34V23c0-2.59-1-3.67-3.08-3.67a5.47,5.47,0,0,0-5.51,4,11.17,11.17,0,0,0-.54,3.67V39.26h-9.34Z"/><path d="M162,.65h16c7.51,0,12.58,5.51,12.58,13.28S185.54,27.32,178,27.32h-6.59V39.26H162Zm14.09,18.58c3.29,0,4.91-2.21,4.91-5.29s-1.62-5.18-4.75-5.18h-4.81V19.22Z"/><path d="M209.08,21.92h.38v-.49c0-2.32-1.78-3.08-4.1-3.08-3.51,0-7.51,2.65-7.51,2.65l-3.24-6.59a21,21,0,0,1,11.66-3.62c7.83,0,12.53,4.27,12.53,11.34V39.26h-8.53V37.58a14.81,14.81,0,0,1,.11-1.73h-.11s-2.05,4.05-7.88,4.05c-5.18,0-9.45-3.46-9.45-9C192.94,22.84,204.76,21.92,209.08,21.92ZM205,32.78c2.43,0,4.59-2.65,4.59-4.91v-.59h-.86c-3,0-6.37.86-6.37,3.19C202.33,31.75,203.14,32.78,205,32.78Z"/><path d="M225.18,11.45h9v4.7a14.78,14.78,0,0,1-.11,1.73h.11c1.19-3.78,4.7-6.91,8.86-6.91a6.29,6.29,0,0,1,1.08.11v9.18a10,10,0,0,0-1.89-.16c-2.21,0-5.83.7-7.18,4.86a12.61,12.61,0,0,0-.49,3.78V39.26h-9.34Z"/><path d="M248.29.65h9.34v20h2.65l5.51-9.18h10.15l-8.15,12.64v.11l9.29,15.07H266.43l-5.89-10.8h-2.92v10.8h-9.34Z"/><line class="cls-3" x1="61.88" y1="59.19" y2="59.19"/><line class="cls-3" x1="277.07" y1="59.19" x2="219.79" y2="59.19"/></g></g></svg>